<?xml version="1.0" encoding="UTF-8"?>
<svg version="1.1" xmlns="http://www.w3.org/2000/svg" width="2201" height="737">
<path d="M0 0 C726.33 0 1452.66 0 2201 0 C2201 243.21 2201 486.42 2201 737 C1474.67 737 748.34 737 0 737 C0 493.79 0 250.58 0 0 Z " fill="#FEFEFE" transform="translate(0,0)"/>
<path d="M0 0 C1.40197954 0.55962995 2.80440256 1.11815023 4.20727539 1.67553711 C5.67213873 2.28946893 7.1355386 2.90690129 8.59765625 3.52734375 C9.40788239 3.86785263 10.21810852 4.20836151 11.05288696 4.55918884 C12.80485707 5.29589092 14.5562016 6.03408216 16.30697632 6.77362061 C20.11654879 8.38270963 23.92924594 9.9843354 27.74171448 11.58654785 C29.75817835 12.43407406 31.77448248 13.28198042 33.79063416 14.13024902 C44.74521791 18.73835191 55.71583803 23.3077458 66.6875 27.875 C68.7038753 28.71471944 70.72023263 29.55448204 72.73657227 30.39428711 C76.79745847 32.08561154 80.858418 33.7767597 84.91943359 35.46777344 C93.9485858 39.22770304 102.97677638 42.9899405 112.0050354 46.75201416 C117.00331714 48.83477161 122.00166177 50.91737813 127 53 C129.0000003 53.83333261 131.0000003 54.66666594 133 55.5 C133.99 55.9125 134.98 56.325 136 56.75 C173 72.16666667 210 87.58333333 247 103 C247 163.39 247 223.78 247 286 C241.10902542 288.94548729 235.4517388 291.76572464 229.37109375 294.171875 C228.67618332 294.45121384 227.98127289 294.73055267 227.26530457 295.01835632 C225.77100562 295.61876792 224.27599697 296.21741582 222.78033447 296.81442261 C218.6686403 298.45636879 214.56302057 300.11338174 210.45703125 301.76953125 C209.59954285 302.11512589 208.74205444 302.46072052 207.85858154 302.81678772 C198.42086736 306.62649661 189.02197848 310.52863803 179.625 314.4375 C166.36729597 319.9490736 153.09922666 325.43374806 139.8125 330.875 C124.55119156 337.1255905 109.30502425 343.41219198 94.06466675 349.71368408 C83.94119894 353.89913257 73.81630742 358.08086169 63.6796875 362.234375 C62.85724045 362.57146988 62.0347934 362.90856476 61.18742371 363.25587463 C57.16986127 364.90199914 53.15127043 366.54554906 49.13110352 368.18530273 C40.98656688 371.51209172 32.87110511 374.89634737 24.78515625 378.36328125 C22.30070908 379.42216732 19.8158416 380.4800613 17.33087158 381.53771973 C14.99614707 382.53738883 12.66883302 383.55304245 10.34130859 384.56933594 C8.9244987 385.17333607 7.50736161 385.77656951 6.08984375 386.37890625 C5.45732193 386.66131668 4.82480011 386.94372711 4.17311096 387.23469543 C-1.70811039 389.69566726 -5.57878893 388.61065969 -11.28491211 386.39624023 C-12.95173895 385.70680922 -14.61572378 385.01048113 -16.27734375 384.30859375 C-17.63618431 383.74375023 -17.63618431 383.74375023 -19.0224762 383.16749573 C-21.99656471 381.92986881 -24.96695405 380.68360278 -27.9375 379.4375 C-30.0244404 378.56764123 -32.11168394 377.69850943 -34.19921875 376.83007812 C-38.44602969 375.0631371 -42.69181559 373.29376604 -46.93701172 371.52294922 C-54.66792236 368.30177447 -62.41652629 365.12433298 -70.16833496 361.95385742 C-104.83520781 347.77203739 -139.43421493 333.42621608 -174 319 C-173.67 338.8 -173.34 358.6 -173 379 C-152.95088254 387.32489306 -132.90128839 395.64639491 -112.8125 403.875 C-99.54893671 409.3086208 -86.29273347 414.75969604 -73.04501343 420.23184204 C-70.14479407 421.42932713 -67.24395356 422.62529708 -64.34301758 423.82104492 C-55.5853177 427.43358744 -46.83460751 431.06070274 -38.10787964 434.74754333 C-34.31090214 436.35133905 -30.51093219 437.94797836 -26.71087646 439.54446411 C-24.91970376 440.29970866 -23.1301547 441.05881685 -21.34234619 441.82199097 C-18.87795044 442.87389426 -16.40844298 443.9128089 -13.9375 444.94921875 C-12.85793533 445.41645355 -12.85793533 445.41645355 -11.75656128 445.89312744 C-6.00325333 448.28223408 -2.32442048 448.79856905 3.58227539 446.76928711 C4.9253982 446.19950742 6.26363342 445.61811517 7.59765625 445.02734375 C8.33131409 444.71326569 9.06497192 444.39918762 9.82086182 444.07559204 C11.40702343 443.3954264 12.99114073 442.7104776 14.57339478 442.02127075 C18.85714061 440.15610314 23.15633797 438.32705956 27.453125 436.4921875 C28.33571487 436.11411453 29.21830475 435.73604156 30.12763977 435.34651184 C38.80918102 431.63452135 47.55284738 428.08522985 56.3125 424.5625 C69.36438175 419.30277343 82.38125165 413.96424235 95.375 408.5625 C108.63302423 403.0516908 121.9007689 397.56625376 135.1875 392.125 C148.4906897 386.6763983 161.78379719 381.20397092 175.06896973 375.71157837 C180.85735737 373.31887525 186.64665309 370.92836988 192.43588257 368.53770447 C197.19861078 366.57077111 201.96087214 364.60272263 206.72216797 362.63232422 C211.27261392 360.74937937 215.82458876 358.87017775 220.37768555 356.99365234 C222.06476894 356.29757959 223.75130658 355.60018238 225.43725586 354.90136719 C227.75751708 353.93983858 230.07967639 352.98304253 232.40234375 352.02734375 C233.40853004 351.60841103 233.40853004 351.60841103 234.43504333 351.18101501 C238.61419019 349.46875405 242.6108674 348.25403789 247 347 C247 367.13 247 387.26 247 408 C225.37145916 417.15053651 203.71190961 426.20004227 181.96704102 435.06933594 C168.52574616 440.55241841 155.10183158 446.07629103 141.6875 451.625 C127.63343424 457.43739869 113.57331639 463.23436312 99.5 469 C86.20795813 474.44595907 72.92558043 479.91489105 59.65014648 485.4012146 C56.71710254 486.61277203 53.78344119 487.82282255 50.84960938 489.0324707 C42.62838918 492.42364685 34.40963192 495.81928246 26.21455383 499.27325439 C23.04804894 500.60717275 19.87851318 501.93379322 16.70864868 503.25970459 C15.25402206 503.8707551 13.8009879 504.48561262 12.34970093 505.10455322 C10.37240191 505.94771424 8.39011693 506.77790584 6.40625 507.60546875 C5.30603516 508.07106201 4.20582031 508.53665527 3.07226562 509.01635742 C-3.88079203 511.24250724 -8.61911976 509.25913479 -15.03125 506.51171875 C-15.91832138 506.14180817 -16.80539276 505.77189758 -17.71934509 505.39077759 C-20.65039148 504.16603232 -23.57502644 502.92667014 -26.5 501.6875 C-28.56341217 500.82268649 -30.62730393 499.95901649 -32.69165039 499.09643555 C-36.98788899 497.30019468 -41.28200945 495.49902203 -45.57470703 493.69433594 C-54.55544494 489.92295691 -63.55997134 486.20943822 -72.56518555 482.49697876 C-75.45474793 481.30538734 -78.34367644 480.11227162 -81.23242188 478.91870117 C-94.10239198 473.60179349 -106.9822341 468.30929746 -119.86764526 463.02993774 C-134.23539069 457.14270521 -148.58773887 451.21860175 -162.93670654 445.2857666 C-175.52163992 440.0826405 -188.11357941 434.89721825 -200.71600342 429.73660278 C-213.80358645 424.37659275 -226.88335405 418.9980241 -239.94378662 413.57214355 C-241.55367005 412.90358503 -243.16389526 412.23584884 -244.7744751 411.56896973 C-246.98350467 410.65393213 -249.19116545 409.73567374 -251.3984375 408.81640625 C-252.38592987 408.40827446 -252.38592987 408.40827446 -253.39337158 407.99189758 C-257.88547635 406.11452365 -257.88547635 406.11452365 -259 405 C-259.09710803 403.37881158 -259.12371591 401.75336554 -259.12304783 400.12927151 C-259.12503888 399.0683282 -259.12702993 398.0073849 -259.12908131 396.9142918 C-259.12616847 395.73435636 -259.12325563 394.55442092 -259.12025452 393.33872986 C-259.12110894 392.09647552 -259.12196337 390.85422117 -259.12284368 389.57432276 C-259.12421194 386.11048283 -259.1210642 382.64669871 -259.11606562 379.1828655 C-259.11176463 375.45346854 -259.11320729 371.72407343 -259.1139679 367.99467468 C-259.11449336 361.52801539 -259.11134427 355.06136616 -259.10573006 348.5947094 C-259.09761802 339.24490149 -259.09500014 329.89509848 -259.09374207 320.54528744 C-259.09155108 305.37743821 -259.08488973 290.20959436 -259.07543945 275.04174805 C-259.06626654 260.30379259 -259.05918512 245.56583859 -259.05493164 230.82788086 C-259.05466892 229.92009693 -259.05440619 229.012313 -259.05413551 228.07702046 C-259.05283051 223.52313344 -259.05156679 218.96924641 -259.05032361 214.41535938 C-259.03994954 176.6102358 -259.02232996 138.80511832 -259 101 C-257.26746116 100.20841727 -255.53447262 99.41781875 -253.80130005 98.62762451 C-252.35378703 97.96706621 -252.35378703 97.96706621 -250.87703133 97.2931633 C-246.7215234 95.42535245 -242.51987505 93.68098965 -238.3046875 91.953125 C-237.41133698 91.58495667 -236.51798645 91.21678833 -235.5975647 90.83746338 C-233.68511065 90.04954739 -231.77229043 89.26251968 -229.85913086 88.47631836 C-225.75720549 86.79064617 -221.65707793 85.10062086 -217.55682373 83.41088867 C-215.44595347 82.54103733 -213.33499107 81.67140952 -211.22393799 80.80200195 C-202.13693781 77.05912444 -193.05767154 73.29779384 -183.98101807 69.52990723 C-167.68612131 62.76565502 -151.38187382 56.02423758 -135.07373047 49.29199219 C-120.71389474 43.36372974 -106.35986162 37.42166372 -92.01092529 31.46707153 C-81.97187042 27.30121443 -71.92981188 23.14275865 -61.8828125 18.99609375 C-60.85947815 18.57369415 -59.8361438 18.15129456 -58.78179932 17.71609497 C-53.83476368 15.67430991 -48.88737577 13.63338458 -43.93945312 11.59375 C-43.02995911 11.21807892 -42.12046509 10.84240784 -41.18341064 10.45535278 C-39.39480787 9.7182584 -37.60474729 8.98469048 -35.81317139 8.25485229 C-31.40684837 6.45173544 -27.05565871 4.58150121 -22.74511719 2.55908203 C-21.89758881 2.1719252 -21.05006042 1.78476837 -20.17684937 1.38587952 C-18.58838504 0.65669727 -17.01002995 -0.09514071 -15.44546509 -0.87428284 C-9.42055273 -3.60254104 -5.89921098 -2.64643431 0 0 Z " fill="#16364D" transform="translate(532,124)"/>
<path d="M0 0 C22.11 0 44.22 0 67 0 C87.79628371 63.38593322 87.79628371 63.38593322 95.75463867 87.89306641 C99.01945032 97.94233032 102.30807674 107.98347569 105.61328125 118.01953125 C106.82483245 121.7034776 108.03608278 125.38752275 109.24725342 129.07159424 C110.02398073 131.43125048 110.80211438 133.7904444 111.58184814 136.14910889 C125.97463018 179.68957718 125.97463018 179.68957718 128.4375 195.5 C128.59669922 196.44101562 128.75589844 197.38203125 128.91992188 198.3515625 C129.29275423 200.5659607 129.65326083 202.7813982 130 205 C130.07814941 204.37697998 130.15629883 203.75395996 130.23681641 203.11206055 C132.29005444 187.77049686 135.87775468 173.38890467 140.78515625 158.7421875 C141.39088466 156.91045759 141.99580692 155.07846094 142.60002136 153.24623108 C144.33063395 148.00800663 146.07441939 142.77424141 147.82011414 137.54102707 C149.06498778 133.80496122 150.30608587 130.06765242 151.54577637 126.3298645 C151.87416996 125.33976906 151.87416996 125.33976906 152.20919776 124.32967168 C152.66031005 122.96957292 153.11142143 121.60947386 153.56253195 120.24937451 C158.87471759 104.23589929 164.20953816 88.2299985 169.54864717 72.22548383 C171.58912465 66.10845659 173.62732108 59.99067101 175.66502744 53.87272018 C177.65486525 47.89868016 179.64586265 41.92502755 181.63784617 35.95170265 C182.81703793 32.41567966 183.99583292 28.8795258 185.173563 25.34301567 C186.47052371 21.44872649 187.76991788 17.55525366 189.06958008 13.66186523 C189.64834396 11.92253723 189.64834396 11.92253723 190.23880005 10.14807129 C190.76584785 8.57115761 190.76584785 8.57115761 191.30354309 6.96238708 C191.60890897 6.04666648 191.91427485 5.13094587 192.22889423 4.18747616 C193 2 193 2 194 0 C215.45 0 236.9 0 259 0 C263.49477686 23.59757849 263.49477686 23.59757849 264.75 33.625 C266.51627605 46.99314206 268.57910003 60.30705984 270.6875 73.625 C273.61461167 92.13810699 276.49394799 110.6575409 279.3125 129.1875 C279.49588928 130.39256195 279.67927856 131.5976239 279.8682251 132.83920288 C280.63350389 137.86812436 281.39855705 142.89708006 282.16317749 147.92610168 C284.26968538 161.7797126 286.38425969 175.632089 288.50057793 189.48420429 C289.20518676 194.09658647 289.90897781 198.70909248 290.61209679 203.321702 C292.87534446 218.16765608 295.15135417 233.01126639 297.4765625 247.84765625 C298.03731959 251.43902204 298.59775818 255.03043742 299.15817261 258.62185669 C299.67268406 261.90544538 300.1937388 265.18795022 300.71508789 268.47045898 C301.02261483 270.43858987 301.32984426 272.40676728 301.63671875 274.375 C301.84677048 275.67601402 301.84677048 275.67601402 302.06106567 277.00331116 C302.24873001 278.2198362 302.24873001 278.2198362 302.44018555 279.4609375 C302.54912643 280.14978027 302.65806732 280.83862305 302.77030945 281.54833984 C303.09536236 285.01787429 303 288.51527209 303 292 C283.53 292 264.06 292 244 292 C241.64620488 274.93498537 239.33260713 257.93296906 237.42041016 240.82348633 C235.57866318 224.36460015 233.65561056 207.92075119 231.5 191.5 C228.79218671 170.84221388 226.42757169 150.14570935 224.07801819 129.44451904 C223.46126345 124.01409287 222.83540264 118.58492699 222.19506836 113.15722656 C220.87098352 101.90548409 219.58944113 90.6798498 218.8125 79.375 C218.73064453 78.25222656 218.64878906 77.12945312 218.56445312 75.97265625 C218.37140544 73.31541161 218.18309123 70.65794553 218 68 C217.88519287 68.63687744 217.77038574 69.27375488 217.65209961 69.92993164 C217.09437956 72.9768214 216.5158399 76.01945919 215.9375 79.0625 C215.66776367 80.56200195 215.66776367 80.56200195 215.39257812 82.09179688 C214.00354036 89.30156431 212.10420512 96.2630616 209.9543457 103.27807617 C209.49653151 104.77568419 209.49653151 104.77568419 209.02946854 106.30354691 C205.59160956 117.45583153 201.90163789 128.52252489 198.18827057 139.58551788 C196.91308395 143.38492702 195.64188964 147.18565209 194.37176514 150.98675537 C191.44164957 159.75337055 188.5055022 168.51796249 185.56904602 177.28245544 C182.23496547 187.23391859 178.90365657 197.18630143 175.578125 207.140625 C175.3642097 207.78075547 175.15029441 208.42088593 174.92989683 209.0804143 C168.79916089 227.42918183 162.80039727 245.80923792 157.09716797 264.29541016 C149.20745752 289.79254248 149.20745752 289.79254248 147 292 C144.40665852 292.0885067 141.83937421 292.1153317 139.24609375 292.09765625 C138.55906372 292.09664917 137.87203369 292.09564209 137.16418457 292.09460449 C134.58858309 292.08935771 132.01307531 292.07543229 129.4375 292.0625 C126.32690708 292.05055031 123.21631 292.03984787 120.10571289 292.02905273 C118.56034844 292.02353349 117.01498405 292.01799605 115.46961975 292.01243591 C114.32464523 292.00833206 113.17967072 292.00422821 112 292 C104.0621948 268.24753417 96.18292645 244.47641304 88.36292267 220.68490982 C87.54621221 218.20045204 86.72917323 215.71610251 85.91204834 213.23178101 C79.28039894 193.06857446 72.6510098 172.90470036 66.13842773 152.70263672 C63.8329234 145.56129088 61.48092696 138.4409648 59.03125 131.34765625 C51.17904942 108.54373666 45.66710099 85.67064254 41 62 C40.98018066 62.66717041 40.96036133 63.33434082 40.93994141 64.02172852 C40.24219842 86.57887247 38.36528943 108.73497761 35.42434692 131.10168457 C33.50608249 145.69592634 31.81042046 160.30769526 30.1875 174.9375 C27.5986494 198.23133489 24.74244256 221.48638259 21.8034668 244.73803711 C21.6399472 246.03231125 21.47642761 247.32658539 21.30795288 248.66007996 C21.00839096 251.02788691 20.7079942 253.39558854 20.40640259 255.76313782 C18.87561391 267.83530234 17.44999392 279.9167173 16 292 C-3.8 292 -23.6 292 -44 292 C-39.49116513 259.31094722 -39.49116513 259.31094722 -37.04931641 243.74414062 C-35.89989256 236.37967127 -34.78259692 229.01042698 -33.66796875 221.640625 C-33.46616014 220.30747184 -33.26433204 218.97432162 -33.06248474 217.64117432 C-32.64978999 214.9150622 -32.23726018 212.18892519 -31.82485962 209.46276855 C-30.72521319 202.19380375 -29.62427145 194.92503504 -28.5234375 187.65625 C-28.41409441 186.93420128 -28.30475132 186.21215256 -28.1920948 185.46822357 C-26.2374953 172.56134716 -24.2775471 159.65529004 -22.3125 146.75 C-22.17371429 145.83851196 -22.03492859 144.92702393 -21.89193726 143.98791504 C-21.20364719 139.46783415 -20.51519352 134.94777821 -19.82666016 130.42773438 C-18.53013793 121.91582598 -17.23514363 113.40368502 -15.93997192 104.89157104 C-15.21262197 100.11130222 -14.48522607 95.33104039 -13.7578125 90.55078125 C-13.61386551 89.60481583 -13.46991852 88.6588504 -13.3216095 87.68421936 C-12.42687613 81.80457416 -11.531912 75.92496413 -10.63677979 70.04537964 C-10.02854667 66.05020014 -9.4203988 62.05500768 -8.81225586 58.05981445 C-8.53088487 56.2115008 -8.24947523 54.36319304 -7.96801758 52.51489258 C-5.30261126 35.01134521 -2.6523546 17.50554037 0 0 Z " fill="#17364D" transform="translate(1598,228)"/>
<path d="M0 0 C1.04717697 0.41525436 1.04717697 0.41525436 2.11550903 0.83889771 C4.28844619 1.70800282 6.44331673 2.61316033 8.59765625 3.52734375 C9.40788239 3.86785263 10.21810852 4.20836151 11.05288696 4.55918884 C12.80485707 5.29589092 14.5562016 6.03408216 16.30697632 6.77362061 C20.11654879 8.38270963 23.92924594 9.9843354 27.74171448 11.58654785 C29.75817835 12.43407406 31.77448248 13.28198042 33.79063416 14.13024902 C44.74521791 18.73835191 55.71583803 23.3077458 66.6875 27.875 C68.7038753 28.71471944 70.72023263 29.55448204 72.73657227 30.39428711 C76.79745847 32.08561154 80.858418 33.7767597 84.91943359 35.46777344 C93.9485858 39.22770304 102.97677638 42.9899405 112.0050354 46.75201416 C117.00331714 48.83477161 122.00166177 50.91737813 127 53 C129.0000003 53.83333261 131.0000003 54.66666594 133 55.5 C133.99 55.9125 134.98 56.325 136 56.75 C173 72.16666667 210 87.58333333 247 103 C244.91563946 105.08436054 243.62691433 105.68471111 240.921875 106.734375 C240.09816406 107.05792969 239.27445313 107.38148438 238.42578125 107.71484375 C237.10126953 108.22724609 237.10126953 108.22724609 235.75 108.75 C233.91091972 109.47258899 232.07237888 110.1965524 230.234375 110.921875 C229.33396484 111.27701172 228.43355469 111.63214844 227.50585938 111.99804688 C224.31037809 113.27574126 221.15537352 114.62612923 218 116 C211.51326064 118.8150001 204.95466072 121.42994067 198.3828125 124.0390625 C193.55729193 125.96047039 188.76465154 127.93232103 184 130 C177.51326064 132.8150001 170.95466072 135.42994067 164.3828125 138.0390625 C159.55729193 139.96047039 154.76465154 141.93232103 150 144 C143.51326064 146.8150001 136.95466072 149.42994067 130.3828125 152.0390625 C125.55729193 153.96047039 120.76465154 155.93232103 116 158 C110.57879925 160.35045067 105.11629121 162.57040616 99.625 164.75 C92.34636511 167.64181561 85.1002667 170.60232745 77.875 173.625 C67.99127349 177.75884406 58.09422298 181.85914653 48.1875 185.9375 C47.46815277 186.23364197 46.74880554 186.52978394 46.00765991 186.8348999 C32.01953791 192.5917245 18.02126311 198.32430413 4 204 C3.21214111 204.39413086 2.42428223 204.78826172 1.61254883 205.19433594 C-4.75646394 207.15842734 -10.85997233 204.08597413 -16.69140625 201.6328125 C-17.53257996 201.28655823 -18.37375366 200.94030396 -19.24041748 200.58355713 C-22.01762631 199.4382375 -24.78998697 198.28163519 -27.5625 197.125 C-29.5266283 196.31256745 -31.49107116 195.50089501 -33.45581055 194.68994141 C-37.56807963 192.99104767 -41.67838204 191.28751943 -45.78710938 189.58007812 C-51.77633097 187.09147023 -57.77019804 184.61424 -63.765625 182.140625 C-69.55477398 179.75174673 -75.34380202 177.36258961 -81.13110352 174.96923828 C-93.2458241 169.95925253 -105.36878988 164.9699156 -117.5 160 C-132.6572749 153.79013883 -147.79954803 147.54449322 -162.93670654 141.2857666 C-176.32355275 135.75109694 -189.71949596 130.2393118 -203.125 124.75 C-221.44985858 117.24611485 -239.73111603 109.63902066 -258 102 C-258 101.34 -258 100.68 -258 100 C-257.10434326 99.63986816 -256.20868652 99.27973633 -255.28588867 98.90869141 C-236.8255747 91.4800401 -218.40913137 83.95544195 -200.0625 76.25 C-185.12245523 69.97599963 -170.1668364 63.74215501 -155.1875 57.5625 C-154.23591003 57.16987976 -153.28432007 56.77725952 -152.30389404 56.3727417 C-147.47630716 54.3811313 -142.64840204 52.39029386 -137.8203125 50.39990234 C-128.10772446 46.39560046 -118.39755906 42.38542967 -108.6875 38.375 C-107.73428864 37.98132233 -106.78107727 37.58764465 -105.79898071 37.18203735 C-93.87083349 32.25537267 -81.94394236 27.32568951 -70.02270508 22.38232422 C-66.62988463 20.97571782 -63.23508921 19.57404838 -59.83862305 18.17626953 C-52.29383027 15.0658117 -44.77073033 11.92164993 -37.30545044 8.62408447 C-33.99649725 7.16408781 -30.6789977 5.72410589 -27.36090088 4.28503418 C-25.80749275 3.60401003 -24.25858538 2.91260991 -22.71478271 2.21008301 C-20.59117914 1.24402537 -18.45478041 0.31435795 -16.3125 -0.609375 C-15.11238281 -1.14530273 -13.91226563 -1.68123047 -12.67578125 -2.23339844 C-7.66245251 -3.27895185 -4.60998872 -1.96197472 0 0 Z " fill="#57FE8F" transform="translate(532,124)"/>
<path d="M0 0 C56.43 0 112.86 0 171 0 C171 17.49 171 34.98 171 53 C135.03 53 99.06 53 62 53 C62 72.47 62 91.94 62 112 C97.97 112 133.94 112 171 112 C171 129.49 171 146.98 171 165 C135.03 165 99.06 165 62 165 C62 189.42 62 213.84 62 239 C97.97 239 133.94 239 171 239 C171 256.49 171 273.98 171 292 C114.57 292 58.14 292 0 292 C0 195.64 0 99.28 0 0 Z " fill="#16364D" transform="translate(898,228)"/>
<path d="M0 0 C4.82192258 4.27175057 8.84521281 9.05052985 12.60229492 14.28320312 C9.3877224 21.77823274 1.84834461 27.13762575 -4.22973633 32.33007812 C-6.91627528 34.75038349 -9.43220506 37.32527457 -11.96020508 39.90820312 C-15.88627545 43.88348608 -19.70688834 47.26023234 -24.39770508 50.28320312 C-25.01645508 49.32220703 -25.01645508 49.32220703 -25.64770508 48.34179688 C-31.83880274 39.06896979 -37.9434833 33.26384911 -48.39770508 29.28320312 C-49.28458008 28.89132812 -50.17145508 28.49945313 -51.08520508 28.09570312 C-61.84324013 24.31585297 -76.29842193 24.88799815 -86.78442383 29.02148438 C-95.31989324 33.14249576 -102.76901353 38.43333757 -106.27270508 47.53320312 C-108.55052512 55.56695165 -108.25555573 63.27116769 -104.76098633 70.88476562 C-94.61943098 88.72692891 -72.1198194 96.73938841 -54.27661133 104.52539062 C-37.33739289 111.93506429 -21.67181226 120.4531517 -7.39770508 132.28320312 C-6.67711914 132.84007812 -5.9565332 133.39695312 -5.21411133 133.97070312 C8.02487599 144.6258237 20.34666717 162.93087202 22.42358398 180.09082031 C23.5386307 193.76994535 24.03828115 208.15483901 19.60229492 221.28320312 C19.10922852 222.95962891 19.10922852 222.95962891 18.60620117 224.66992188 C12.12358052 245.05989479 -2.31329785 261.34190525 -21.00195312 271.5246582 C-39.17799728 280.88574017 -58.75055245 284.68767004 -79.08520508 284.53320312 C-80.40375488 284.52498535 -81.72230469 284.51676758 -83.08081055 284.50830078 C-111.51612246 284.18362503 -139.0004441 278.31036833 -160.39770508 258.28320312 C-164.02930855 254.52245472 -167.30796907 250.50027524 -170.39770508 246.28320312 C-171.33743164 245.02443359 -171.33743164 245.02443359 -172.29614258 243.74023438 C-173.39770508 241.28320312 -173.39770508 241.28320312 -172.96411133 238.88476562 C-170.8403342 235.35749488 -168.19964205 232.59736807 -165.33520508 229.65820312 C-160.51470899 224.59897013 -155.97857702 219.4290599 -151.60864258 213.97070312 C-147.72058938 209.24458899 -143.55621015 204.77161048 -139.39770508 200.28320312 C-137.10473526 203.21957343 -135.22034837 206.26086456 -133.33520508 209.47070312 C-125.29402378 222.05180136 -112.14234274 230.44121507 -97.62036133 233.84179688 C-81.59897397 236.03624145 -64.58236259 234.91737401 -51.22192383 224.86523438 C-43.69055566 218.33374807 -40.16385314 211.3694833 -38.90942383 201.40429688 C-38.37144965 193.3996616 -39.36249545 187.26270219 -44.28442383 180.67382812 C-56.48228683 166.87513652 -73.29895328 159.54978841 -89.39770508 151.28320312 C-115.5292025 137.86220485 -115.5292025 137.86220485 -125.39770508 131.28320312 C-125.95184082 130.91549805 -126.50597656 130.54779297 -127.0769043 130.16894531 C-146.46430101 117.18645812 -163.26916263 101.23558231 -168.54223633 77.53710938 C-169.54785195 72.14483261 -169.70435728 66.88186176 -169.64770508 61.40820312 C-169.63537842 59.95595337 -169.63537842 59.95595337 -169.62280273 58.47436523 C-169.3457717 40.74586823 -164.75985666 26.02147006 -153.39770508 12.28320312 C-152.7815332 11.50460938 -152.16536133 10.72601563 -151.53051758 9.92382812 C-135.10668559 -9.8392892 -109.66408622 -19.66053999 -84.70458984 -22.53588867 C-53.1585728 -25.00975878 -24.68869577 -21.04154364 0 0 Z " fill="#17364D" transform="translate(2096.397705078125,243.716796875)"/>
<path d="M0 0 C4.82192258 4.27175057 8.84521281 9.05052985 12.60229492 14.28320312 C9.3877224 21.77823274 1.84834461 27.13762575 -4.22973633 32.33007812 C-6.91627528 34.75038349 -9.43220506 37.32527457 -11.96020508 39.90820312 C-15.88627545 43.88348608 -19.70688834 47.26023234 -24.39770508 50.28320312 C-25.01645508 49.32220703 -25.01645508 49.32220703 -25.64770508 48.34179688 C-31.83880274 39.06896979 -37.9434833 33.26384911 -48.39770508 29.28320312 C-49.28458008 28.89132812 -50.17145508 28.49945313 -51.08520508 28.09570312 C-61.84324013 24.31585297 -76.29842193 24.88799815 -86.78442383 29.02148438 C-95.31989324 33.14249576 -102.76901353 38.43333757 -106.27270508 47.53320312 C-108.55052512 55.56695165 -108.25555573 63.27116769 -104.76098633 70.88476562 C-94.61943098 88.72692891 -72.1198194 96.73938841 -54.27661133 104.52539062 C-37.33739289 111.93506429 -21.67181226 120.4531517 -7.39770508 132.28320312 C-6.67711914 132.84007812 -5.9565332 133.39695312 -5.21411133 133.97070312 C8.02487599 144.6258237 20.34666717 162.93087202 22.42358398 180.09082031 C23.5386307 193.76994535 24.03828115 208.15483901 19.60229492 221.28320312 C19.10922852 222.95962891 19.10922852 222.95962891 18.60620117 224.66992188 C12.12358052 245.05989479 -2.31329785 261.34190525 -21.00195312 271.5246582 C-39.17799728 280.88574017 -58.75055245 284.68767004 -79.08520508 284.53320312 C-80.40375488 284.52498535 -81.72230469 284.51676758 -83.08081055 284.50830078 C-111.51612246 284.18362503 -139.0004441 278.31036833 -160.39770508 258.28320312 C-164.02930855 254.52245472 -167.30796907 250.50027524 -170.39770508 246.28320312 C-171.33743164 245.02443359 -171.33743164 245.02443359 -172.29614258 243.74023438 C-173.39770508 241.28320312 -173.39770508 241.28320312 -172.96411133 238.88476562 C-170.8403342 235.35749488 -168.19964205 232.59736807 -165.33520508 229.65820312 C-160.51470899 224.59897013 -155.97857702 219.4290599 -151.60864258 213.97070312 C-147.72058938 209.24458899 -143.55621015 204.77161048 -139.39770508 200.28320312 C-137.10473526 203.21957343 -135.22034837 206.26086456 -133.33520508 209.47070312 C-125.29402378 222.05180136 -112.14234274 230.44121507 -97.62036133 233.84179688 C-81.59897397 236.03624145 -64.58236259 234.91737401 -51.22192383 224.86523438 C-43.69055566 218.33374807 -40.16385314 211.3694833 -38.90942383 201.40429688 C-38.37144965 193.3996616 -39.36249545 187.26270219 -44.28442383 180.67382812 C-56.48228683 166.87513652 -73.29895328 159.54978841 -89.39770508 151.28320312 C-115.5292025 137.86220485 -115.5292025 137.86220485 -125.39770508 131.28320312 C-125.95184082 130.91549805 -126.50597656 130.54779297 -127.0769043 130.16894531 C-146.46430101 117.18645812 -163.26916263 101.23558231 -168.54223633 77.53710938 C-169.54785195 72.14483261 -169.70435728 66.88186176 -169.64770508 61.40820312 C-169.63537842 59.95595337 -169.63537842 59.95595337 -169.62280273 58.47436523 C-169.3457717 40.74586823 -164.75985666 26.02147006 -153.39770508 12.28320312 C-152.7815332 11.50460938 -152.16536133 10.72601563 -151.53051758 9.92382812 C-135.10668559 -9.8392892 -109.66408622 -19.66053999 -84.70458984 -22.53588867 C-53.1585728 -25.00975878 -24.68869577 -21.04154364 0 0 Z " fill="#17364D" transform="translate(1506.397705078125,243.716796875)"/>
<path d="M0 0 C67.65 0 135.3 0 205 0 C205 17.49 205 34.98 205 53 C181.57 53 158.14 53 134 53 C134 131.87 134 210.74 134 292 C113.21 292 92.42 292 71 292 C71 213.13 71 134.26 71 53 C47.57 53 24.14 53 0 53 C0 35.51 0 18.02 0 0 Z " fill="#16364D" transform="translate(1106,228)"/>
<path d="M0 0 C5.59304765 1.81055835 11.08992173 3.75217107 16.53125 5.9765625 C17.22757538 6.25873123 17.92390076 6.54089996 18.6413269 6.83161926 C20.92878372 7.75974569 23.21444468 8.69220185 25.5 9.625 C27.13620097 10.2905185 28.77243212 10.95596278 30.40869141 11.62133789 C44.14941281 17.21636068 57.85498621 22.89576529 71.5546875 28.59033203 C84.77352872 34.08426813 98.01013091 39.5335771 111.26293945 44.94506836 C119.97916711 48.50777241 128.67322513 52.11787343 137.34765625 55.78125 C140.16999599 56.96853517 142.99266414 58.15503619 145.81542969 59.34130859 C147.63137295 60.10725836 149.44570027 60.87705181 151.25830078 61.65087891 C153.77378054 62.72465646 156.29440745 63.78539396 158.81640625 64.84375 C159.92931786 65.32527527 159.92931786 65.32527527 161.06471252 65.81652832 C166.80025178 68.20071099 170.65616657 68.79437099 176.71484375 66.7409668 C178.12695434 66.1545767 179.53426359 65.55653845 180.9375 64.94921875 C182.10129684 64.46107697 182.10129684 64.46107697 183.28860474 63.96307373 C185.86323078 62.88080665 188.43139743 61.78397705 191 60.6875 C192.82615615 59.91750475 194.65282739 59.14873012 196.47998047 58.38110352 C200.34345137 56.75730865 204.2049754 55.12899949 208.06542969 53.49804688 C216.76774115 49.82785926 225.49972558 46.22959279 234.23156738 42.63037109 C237.13888742 41.43177465 240.0455976 40.2317104 242.95214844 39.03125 C256.95978145 33.24687164 270.97627614 27.48421934 285.0012207 21.74194336 C292.97757616 18.47549017 300.94845923 15.19657066 308.91015625 11.89453125 C311.28416255 10.91136948 313.65825133 9.92840709 316.03234863 8.94546509 C317.54012513 8.32026535 319.04737788 7.69380088 320.55407715 7.06600952 C322.61422513 6.20761453 324.67605438 5.3533858 326.73828125 4.5 C327.90399658 4.0153125 329.06971191 3.530625 330.27075195 3.03125 C333 2 333 2 335 2 C335 21.8 335 41.6 335 62 C326.00102424 66.49948788 326.00102424 66.49948788 322.78271484 67.80493164 C322.04901672 68.10444733 321.3153186 68.40396301 320.55938721 68.71255493 C319.3969046 69.18161758 319.3969046 69.18161758 318.2109375 69.66015625 C317.37149597 70.00202972 316.53205444 70.3439032 315.66717529 70.69613647 C313.85404115 71.43425449 312.04034234 72.1709867 310.22613525 72.90646362 C305.27822043 74.91267133 300.33476984 76.92983623 295.390625 78.9453125 C294.36514557 79.36302414 293.33966614 79.78073578 292.28311157 80.21110535 C281.5494959 84.58547854 270.83589902 89.00785713 260.125 93.4375 C258.22266718 94.22382202 256.3203234 95.01011751 254.41796875 95.79638672 C246.55198573 99.04799552 238.686902 102.3017762 230.82226562 105.55664062 C225.66310435 107.69180952 220.50350801 109.82592437 215.34368896 111.95950317 C211.58254288 113.51529952 207.82224432 115.07313924 204.06210327 116.63136292 C202.30265662 117.35736169 200.54146878 118.07915662 198.7784729 118.79649353 C194.34111114 120.60253488 189.94276594 122.46267281 185.57519531 124.43212891 C184.6878067 124.8191951 183.80041809 125.20626129 182.88613892 125.60505676 C181.21373032 126.33480594 179.55105461 127.08750222 177.90170288 127.8679657 C172.37775911 130.23156674 168.97405498 130.02095117 163.34713745 127.96159363 C162.57258209 127.64426773 161.79802673 127.32694183 161 127 C159.77571289 126.53271484 158.55142578 126.06542969 157.29003906 125.58398438 C155.5454541 124.84631836 155.5454541 124.84631836 153.765625 124.09375 C152.77712807 123.67869957 152.77712807 123.67869957 151.7686615 123.25526428 C150.34268493 122.65593811 148.91765432 122.05435705 147.49349976 121.45071411 C144.35918041 120.12250286 141.2199274 118.80613133 138.08097839 117.48890686 C136.3865888 116.77780714 134.69243039 116.06615631 132.99848938 115.35398865 C122.74644556 111.04597405 112.46713846 106.80414267 102.1875 102.5625 C101.21533539 102.16114838 100.24317078 101.75979675 99.24154663 101.34628296 C85.85480656 95.81971826 72.46186649 90.30837736 59.0625 84.8125 C58.28343292 84.49289307 57.50436584 84.17328613 56.70169067 83.84399414 C48.38510168 80.43248149 40.0664678 77.0260442 31.74406433 73.6287384 C28.08599209 72.13509777 24.42868053 70.63960003 20.77145386 69.14389038 C19.01738435 68.42714488 17.2629328 67.71133361 15.50808716 66.99649048 C13.09040749 66.0116175 10.67398296 65.02372472 8.2578125 64.03515625 C7.53384781 63.74118958 6.80988312 63.4472229 6.0639801 63.14434814 C1.11386112 61.11386112 1.11386112 61.11386112 0 60 C-0.09386381 58.1281906 -0.11743804 56.2528194 -0.11352539 54.37866211 C-0.11344986 53.17749252 -0.11337433 51.97632294 -0.11329651 50.73875427 C-0.10813522 49.4314888 -0.10297394 48.12422333 -0.09765625 46.77734375 C-0.09579198 45.43355868 -0.09436812 44.08977293 -0.09336853 42.74598694 C-0.08954402 39.20317723 -0.07971432 35.6604083 -0.06866455 32.11761475 C-0.05844899 28.50484773 -0.0538706 24.89207416 -0.04882812 21.27929688 C-0.03809198 14.1861812 -0.02101636 7.09309326 0 0 Z " fill="#FDFEFE" transform="translate(359,322)"/>
</svg>
